<mxfile host="Electron" agent="Mozilla/5.0 (Windows NT 10.0; Win64; x64) AppleWebKit/537.36 (KHTML, like Gecko) draw.io/28.1.2 Chrome/138.0.7204.243 Electron/37.4.0 Safari/537.36" version="28.1.2">
  <diagram name="Страница — 1" id="uw21AOcht9-WSTQxQsx5">
    <mxGraphModel dx="1042" dy="634" grid="1" gridSize="10" guides="1" tooltips="1" connect="1" arrows="1" fold="1" page="1" pageScale="1" pageWidth="827" pageHeight="1169" math="0" shadow="0">
      <root>
        <mxCell id="0" />
        <mxCell id="1" parent="0" />
        <mxCell id="FiWg13B5UA5fxya8DTN1-3" style="edgeStyle=orthogonalEdgeStyle;rounded=0;orthogonalLoop=1;jettySize=auto;html=1;exitX=0.5;exitY=1;exitDx=0;exitDy=0;" parent="1" source="FiWg13B5UA5fxya8DTN1-1" target="FiWg13B5UA5fxya8DTN1-2" edge="1">
          <mxGeometry relative="1" as="geometry" />
        </mxCell>
        <mxCell id="FiWg13B5UA5fxya8DTN1-1" value="Початок" style="ellipse;whiteSpace=wrap;html=1;" parent="1" vertex="1">
          <mxGeometry x="340" y="50" width="120" height="80" as="geometry" />
        </mxCell>
        <mxCell id="FiWg13B5UA5fxya8DTN1-6" style="edgeStyle=orthogonalEdgeStyle;rounded=0;orthogonalLoop=1;jettySize=auto;html=1;exitX=0.5;exitY=1;exitDx=0;exitDy=0;" parent="1" source="FiWg13B5UA5fxya8DTN1-2" target="FiWg13B5UA5fxya8DTN1-4" edge="1">
          <mxGeometry relative="1" as="geometry" />
        </mxCell>
        <mxCell id="FiWg13B5UA5fxya8DTN1-2" value="&lt;div style=&quot;&quot;&gt;&lt;font face=&quot;Times New Roman&quot; style=&quot;font-size: 14px;&quot;&gt;Оголосити клас RadioRelay&amp;nbsp;&lt;span style=&quot;background-color: transparent; color: light-dark(rgb(0, 0, 0), rgb(255, 255, 255));&quot;&gt;&amp;nbsp;(напруга котушки, макс.&amp;nbsp; &amp;nbsp;&amp;nbsp;&lt;/span&gt;&lt;/font&gt;&lt;/div&gt;&lt;div style=&quot;&quot;&gt;&lt;font face=&quot;Times New Roman&quot; size=&quot;3&quot;&gt;&amp;nbsp;струм, кількість контактів)&lt;/font&gt;&lt;/div&gt;" style="rounded=0;whiteSpace=wrap;html=1;align=center;" parent="1" vertex="1">
          <mxGeometry x="320" y="170" width="160" height="100" as="geometry" />
        </mxCell>
        <mxCell id="FiWg13B5UA5fxya8DTN1-8" style="edgeStyle=orthogonalEdgeStyle;rounded=0;orthogonalLoop=1;jettySize=auto;html=1;exitX=0.5;exitY=1;exitDx=0;exitDy=0;entryX=0.5;entryY=0;entryDx=0;entryDy=0;" parent="1" source="FiWg13B5UA5fxya8DTN1-4" target="FiWg13B5UA5fxya8DTN1-7" edge="1">
          <mxGeometry relative="1" as="geometry" />
        </mxCell>
        <mxCell id="FiWg13B5UA5fxya8DTN1-4" value="&lt;p data-end=&quot;306&quot; data-start=&quot;232&quot;&gt;Реалізувати конструктори:&lt;br data-end=&quot;262&quot; data-start=&quot;259&quot;&gt;&lt;br&gt;– за замовчуванням&lt;br data-is-only-node=&quot;&quot; data-end=&quot;286&quot; data-start=&quot;283&quot;&gt;&lt;br&gt;– з параметрами&amp;nbsp;&lt;/p&gt;&lt;p data-end=&quot;306&quot; data-start=&quot;232&quot;&gt;&lt;span style=&quot;background-color: transparent; color: light-dark(rgb(0, 0, 0), rgb(255, 255, 255));&quot;&gt;+деструктор&lt;/span&gt;&lt;/p&gt;" style="rounded=0;whiteSpace=wrap;html=1;" parent="1" vertex="1">
          <mxGeometry x="300" y="320" width="200" height="120" as="geometry" />
        </mxCell>
        <mxCell id="FiWg13B5UA5fxya8DTN1-10" style="edgeStyle=orthogonalEdgeStyle;rounded=0;orthogonalLoop=1;jettySize=auto;html=1;exitX=0.5;exitY=1;exitDx=0;exitDy=0;entryX=0.5;entryY=0;entryDx=0;entryDy=0;" parent="1" source="FiWg13B5UA5fxya8DTN1-7" target="FiWg13B5UA5fxya8DTN1-9" edge="1">
          <mxGeometry relative="1" as="geometry" />
        </mxCell>
        <mxCell id="FiWg13B5UA5fxya8DTN1-7" value="Реалізувати методи класу:&lt;br data-end=&quot;360&quot; data-start=&quot;357&quot;&gt;&lt;br/&gt;– введення даних&lt;br data-is-only-node=&quot;&quot; data-end=&quot;382&quot; data-start=&quot;379&quot;&gt;&lt;br/&gt;– виведення даних&lt;br data-end=&quot;405&quot; data-start=&quot;402&quot;&gt;&lt;br/&gt;– перевірка валідності" style="rounded=0;whiteSpace=wrap;html=1;" parent="1" vertex="1">
          <mxGeometry x="310" y="480" width="180" height="100" as="geometry" />
        </mxCell>
        <mxCell id="FiWg13B5UA5fxya8DTN1-15" style="edgeStyle=orthogonalEdgeStyle;rounded=0;orthogonalLoop=1;jettySize=auto;html=1;exitX=0.5;exitY=1;exitDx=0;exitDy=0;entryX=0.5;entryY=0;entryDx=0;entryDy=0;" parent="1" source="FiWg13B5UA5fxya8DTN1-9" target="FiWg13B5UA5fxya8DTN1-13" edge="1">
          <mxGeometry relative="1" as="geometry" />
        </mxCell>
        <mxCell id="FiWg13B5UA5fxya8DTN1-9" value="Створити кілька об’єктів класу RadioRelay" style="rounded=0;whiteSpace=wrap;html=1;" parent="1" vertex="1">
          <mxGeometry x="340" y="630" width="120" height="60" as="geometry" />
        </mxCell>
        <mxCell id="FiWg13B5UA5fxya8DTN1-13" value="Перевірка за критерієм (напруга / струм)" style="rhombus;whiteSpace=wrap;html=1;" parent="1" vertex="1">
          <mxGeometry x="352" y="720" width="96" height="100" as="geometry" />
        </mxCell>
        <mxCell id="FiWg13B5UA5fxya8DTN1-22" style="edgeStyle=orthogonalEdgeStyle;rounded=0;orthogonalLoop=1;jettySize=auto;html=1;exitX=0.5;exitY=1;exitDx=0;exitDy=0;entryX=0.5;entryY=0;entryDx=0;entryDy=0;" parent="1" source="FiWg13B5UA5fxya8DTN1-16" target="FiWg13B5UA5fxya8DTN1-21" edge="1">
          <mxGeometry relative="1" as="geometry" />
        </mxCell>
        <mxCell id="FiWg13B5UA5fxya8DTN1-16" value="Вивести&lt;div&gt;результати&lt;/div&gt;" style="shape=parallelogram;perimeter=parallelogramPerimeter;whiteSpace=wrap;html=1;fixedSize=1;" parent="1" vertex="1">
          <mxGeometry x="340" y="880" width="120" height="60" as="geometry" />
        </mxCell>
        <mxCell id="FiWg13B5UA5fxya8DTN1-21" value="Кінець&lt;div&gt;&lt;br&gt;&lt;/div&gt;" style="ellipse;whiteSpace=wrap;html=1;" parent="1" vertex="1">
          <mxGeometry x="340" y="990" width="120" height="80" as="geometry" />
        </mxCell>
        <mxCell id="FiWg13B5UA5fxya8DTN1-23" style="edgeStyle=orthogonalEdgeStyle;rounded=0;orthogonalLoop=1;jettySize=auto;html=1;exitX=0.5;exitY=1;exitDx=0;exitDy=0;" parent="1" source="FiWg13B5UA5fxya8DTN1-24" target="FiWg13B5UA5fxya8DTN1-26" edge="1">
          <mxGeometry relative="1" as="geometry" />
        </mxCell>
        <mxCell id="FiWg13B5UA5fxya8DTN1-24" value="Початок" style="ellipse;whiteSpace=wrap;html=1;" parent="1" vertex="1">
          <mxGeometry x="340" y="50" width="120" height="80" as="geometry" />
        </mxCell>
        <mxCell id="FiWg13B5UA5fxya8DTN1-25" style="edgeStyle=orthogonalEdgeStyle;rounded=0;orthogonalLoop=1;jettySize=auto;html=1;exitX=0.5;exitY=1;exitDx=0;exitDy=0;" parent="1" source="FiWg13B5UA5fxya8DTN1-26" target="FiWg13B5UA5fxya8DTN1-28" edge="1">
          <mxGeometry relative="1" as="geometry" />
        </mxCell>
        <mxCell id="FiWg13B5UA5fxya8DTN1-26" value="&lt;div style=&quot;&quot;&gt;&lt;font face=&quot;Times New Roman&quot;&gt;&lt;span style=&quot;font-size: 14px;&quot;&gt;Створити обєкт r1&lt;/span&gt;&lt;/font&gt;&lt;/div&gt;" style="rounded=0;whiteSpace=wrap;html=1;align=center;" parent="1" vertex="1">
          <mxGeometry x="320" y="170" width="160" height="100" as="geometry" />
        </mxCell>
        <mxCell id="FiWg13B5UA5fxya8DTN1-27" style="edgeStyle=orthogonalEdgeStyle;rounded=0;orthogonalLoop=1;jettySize=auto;html=1;exitX=0.5;exitY=1;exitDx=0;exitDy=0;entryX=0.5;entryY=0;entryDx=0;entryDy=0;" parent="1" source="FiWg13B5UA5fxya8DTN1-28" target="FiWg13B5UA5fxya8DTN1-30" edge="1">
          <mxGeometry relative="1" as="geometry" />
        </mxCell>
        <mxCell id="FiWg13B5UA5fxya8DTN1-28" value="&lt;p data-end=&quot;306&quot; data-start=&quot;232&quot;&gt;Ввести дані обєкта r1&lt;/p&gt;" style="rounded=0;whiteSpace=wrap;html=1;" parent="1" vertex="1">
          <mxGeometry x="300" y="320" width="200" height="120" as="geometry" />
        </mxCell>
        <mxCell id="FiWg13B5UA5fxya8DTN1-29" style="edgeStyle=orthogonalEdgeStyle;rounded=0;orthogonalLoop=1;jettySize=auto;html=1;exitX=0.5;exitY=1;exitDx=0;exitDy=0;entryX=0.5;entryY=0;entryDx=0;entryDy=0;" parent="1" source="FiWg13B5UA5fxya8DTN1-30" target="FiWg13B5UA5fxya8DTN1-32" edge="1">
          <mxGeometry relative="1" as="geometry" />
        </mxCell>
        <mxCell id="FiWg13B5UA5fxya8DTN1-30" value="Вивести дані обєкта R1" style="rounded=0;whiteSpace=wrap;html=1;" parent="1" vertex="1">
          <mxGeometry x="310" y="480" width="180" height="100" as="geometry" />
        </mxCell>
        <mxCell id="FiWg13B5UA5fxya8DTN1-31" style="edgeStyle=orthogonalEdgeStyle;rounded=0;orthogonalLoop=1;jettySize=auto;html=1;exitX=0.5;exitY=1;exitDx=0;exitDy=0;entryX=0.5;entryY=0;entryDx=0;entryDy=0;" parent="1" source="FiWg13B5UA5fxya8DTN1-32" target="FiWg13B5UA5fxya8DTN1-35" edge="1">
          <mxGeometry relative="1" as="geometry" />
        </mxCell>
        <mxCell id="FiWg13B5UA5fxya8DTN1-32" value="Створити обєкт R2" style="rounded=0;whiteSpace=wrap;html=1;" parent="1" vertex="1">
          <mxGeometry x="340" y="630" width="120" height="60" as="geometry" />
        </mxCell>
        <mxCell id="Gh0b230bY873PjKmzqIU-2" style="edgeStyle=orthogonalEdgeStyle;rounded=0;orthogonalLoop=1;jettySize=auto;html=1;entryX=0.5;entryY=0;entryDx=0;entryDy=0;" edge="1" parent="1" source="FiWg13B5UA5fxya8DTN1-35" target="FiWg13B5UA5fxya8DTN1-37">
          <mxGeometry relative="1" as="geometry" />
        </mxCell>
        <mxCell id="Gh0b230bY873PjKmzqIU-4" style="edgeStyle=orthogonalEdgeStyle;rounded=0;orthogonalLoop=1;jettySize=auto;html=1;exitX=1;exitY=0.5;exitDx=0;exitDy=0;entryX=0.5;entryY=0;entryDx=0;entryDy=0;" edge="1" parent="1" source="FiWg13B5UA5fxya8DTN1-35" target="Gh0b230bY873PjKmzqIU-3">
          <mxGeometry relative="1" as="geometry" />
        </mxCell>
        <mxCell id="FiWg13B5UA5fxya8DTN1-35" value="R1 відповідає&lt;div&gt;критерію?&lt;/div&gt;" style="rhombus;whiteSpace=wrap;html=1;" parent="1" vertex="1">
          <mxGeometry x="340" y="720" width="120" height="110" as="geometry" />
        </mxCell>
        <mxCell id="FiWg13B5UA5fxya8DTN1-36" style="edgeStyle=orthogonalEdgeStyle;rounded=0;orthogonalLoop=1;jettySize=auto;html=1;exitX=0.5;exitY=1;exitDx=0;exitDy=0;entryX=0.5;entryY=0;entryDx=0;entryDy=0;" parent="1" source="FiWg13B5UA5fxya8DTN1-37" target="FiWg13B5UA5fxya8DTN1-40" edge="1">
          <mxGeometry relative="1" as="geometry" />
        </mxCell>
        <mxCell id="FiWg13B5UA5fxya8DTN1-37" value="Вивести&lt;div&gt;&quot;R1 підходить&quot;&lt;/div&gt;" style="shape=parallelogram;perimeter=parallelogramPerimeter;whiteSpace=wrap;html=1;fixedSize=1;" parent="1" vertex="1">
          <mxGeometry x="340" y="880" width="120" height="60" as="geometry" />
        </mxCell>
        <mxCell id="FiWg13B5UA5fxya8DTN1-40" value="Кінець&lt;div&gt;&lt;br&gt;&lt;/div&gt;" style="ellipse;whiteSpace=wrap;html=1;" parent="1" vertex="1">
          <mxGeometry x="340" y="990" width="120" height="80" as="geometry" />
        </mxCell>
        <mxCell id="Gh0b230bY873PjKmzqIU-5" style="edgeStyle=orthogonalEdgeStyle;rounded=0;orthogonalLoop=1;jettySize=auto;html=1;exitX=0.5;exitY=1;exitDx=0;exitDy=0;entryX=1;entryY=0.5;entryDx=0;entryDy=0;" edge="1" parent="1" source="Gh0b230bY873PjKmzqIU-3" target="FiWg13B5UA5fxya8DTN1-40">
          <mxGeometry relative="1" as="geometry" />
        </mxCell>
        <mxCell id="Gh0b230bY873PjKmzqIU-3" value="Вивести &quot;R1 не підходить&quot;" style="rounded=0;whiteSpace=wrap;html=1;" vertex="1" parent="1">
          <mxGeometry x="500" y="880" width="120" height="60" as="geometry" />
        </mxCell>
        <mxCell id="Gh0b230bY873PjKmzqIU-6" value="Ні" style="text;html=1;align=center;verticalAlign=middle;resizable=0;points=[];autosize=1;strokeColor=none;fillColor=none;" vertex="1" parent="1">
          <mxGeometry x="475" y="748" width="30" height="30" as="geometry" />
        </mxCell>
      </root>
    </mxGraphModel>
  </diagram>
</mxfile>
